<svg xmlns="http://www.w3.org/2000/svg" xmlns:xlink="http://www.w3.org/1999/xlink" version="1.1" x="0px" y="0px" viewBox="0 0 488 462.45125" style="enable-background:new 0 0 488 369.961;" xml:space="preserve"><g><polygon points="192,201.185 192,281.961 203.996,281.961 203.996,188.846  "/><polygon points="211.996,180.617 211.996,281.961 220,281.961 220,172.385  "/><polygon points="175.996,217.646 175.996,281.961 184,281.961 184,209.413  "/><polygon points="244,147.699 228,164.156 228,281.961 260,281.961 260,164.156  "/><polygon points="268,172.385 268,281.961 276.004,281.961 276.004,180.617  "/><polygon points="284.004,188.846 284.004,281.961 296,281.961 296,201.185  "/><rect x="120" y="333.961" width="248" height="16"/><polygon points="304,209.413 304,281.961 312.004,281.961 312.004,217.646  "/><rect x="96" y="289.961" width="296" height="12"/><path d="M384,349.961v-40H104v40h8v-20c0-2.209,1.791-4,4-4h256c2.209,0,4,1.791,4,4v20H384z"/><polygon points="113.468,281.961 131.996,281.961 131.996,262.903  "/><polygon points="156,238.213 156,281.961 167.996,281.961 167.996,225.875  "/><polygon points="139.996,254.675 139.996,281.961 148,281.961 148,246.442  "/><path d="M251.521,84.116c-1.559-48.15-5.67-61.52-7.521-65.138c-1.851,3.618-5.962,16.989-7.521,65.138L244,100.414L251.521,84.116   z"/><path d="M219.859,67.192l-28.281,56.558c-0.49,0.98-1.361,1.716-2.409,2.036L47.51,169.071l-27.708,155.86l219.388-215.849   L219.859,67.192z"/><path d="M90.607,309.697c-1.519-0.567-2.607-2.02-2.607-3.736v-20c0-2.209,1.791-4,4-4h10.31L240,140.337v-20.829L5.77,349.961   h44.574L90.607,309.697z"/><polygon points="320.004,225.875 320.004,281.961 332,281.961 332,238.213  "/><rect y="357.961" width="488" height="12"/><polygon points="96,349.961 96,315.618 61.657,349.961  "/><path d="M279.491,0c-6.576,8.956-16.402,15.202-27.539,17.24c1.117,2.778,2.08,6.415,2.935,11.02   C267.734,24.192,277.243,13.21,279.491,0z"/><path d="M233.114,28.26c0.855-4.605,1.818-8.242,2.935-11.02C224.911,15.202,215.084,8.956,208.509,0   C210.757,13.21,220.266,24.192,233.114,28.26z"/><polygon points="340,246.442 340,281.961 348.004,281.961 348.004,254.675  "/><polygon points="356.004,281.961 374.532,281.961 356.004,262.903  "/><path d="M248.811,109.082l219.388,215.849l-27.708-155.86l-141.659-43.285c-1.048-0.32-1.919-1.056-2.409-2.036l-28.281-56.558   L248.811,109.082z"/><path d="M482.23,349.961L248,119.508v20.829l137.69,141.624H396c2.209,0,4,1.791,4,4v20c0,1.717-1.088,3.169-2.607,3.736   l40.264,40.264H482.23z"/><polygon points="392,315.618 392,349.961 426.343,349.961  "/></g><text x="0" y="384.961" fill="#000000" font-size="5px" font-weight="bold" font-family="'Helvetica Neue', Helvetica, Arial-Unicode, Arial, Sans-serif">Created by Amethyst Studio</text><text x="0" y="389.961" fill="#000000" font-size="5px" font-weight="bold" font-family="'Helvetica Neue', Helvetica, Arial-Unicode, Arial, Sans-serif">from the Noun Project</text></svg>